<?xml version="1.0" standalone="no"?>
<!DOCTYPE svg PUBLIC "-//W3C//DTD SVG 20010904//EN"
 "http://www.w3.org/TR/2001/REC-SVG-20010904/DTD/svg10.dtd">
<svg version="1.0" xmlns="http://www.w3.org/2000/svg"
 width="512.000000pt" height="512.000000pt" viewBox="0 0 512.000000 512.000000"
 preserveAspectRatio="xMidYMid meet">

<g transform="translate(0.000000,512.000000) scale(0.100000,-0.100000)"
fill="#000000" stroke="none">
<path d="M1750 5098 c-58 -30 -75 -66 -100 -213 -28 -164 -28 -386 0 -549 88
-517 424 -971 892 -1207 113 -57 241 -101 433 -148 l190 -47 5 -330 c4 -236 9
-335 17 -351 39 -67 147 -90 211 -45 66 47 67 52 70 409 l3 321 152 37 c211
52 313 87 452 156 287 142 534 378 701 669 182 318 256 746 189 1100 -23 122
-32 145 -70 179 -57 50 -81 49 -318 -9 -318 -79 -476 -140 -644 -247 -243
-154 -466 -399 -593 -652 l-32 -64 -47 89 c-186 353 -486 622 -855 767 -95 38
-545 157 -591 157 -11 0 -41 -10 -65 -22z m347 -352 c295 -77 482 -184 679
-388 187 -194 313 -442 360 -708 16 -92 24 -383 11 -397 -8 -8 -214 44 -317
80 -323 112 -600 356 -753 662 -105 209 -137 337 -144 577 -3 97 -3 184 0 193
8 20 13 20 164 -19z m2587 -3 c11 -68 6 -223 -10 -331 -70 -475 -394 -884
-839 -1061 -102 -41 -352 -107 -363 -96 -15 15 -14 245 2 351 73 496 391 898
859 1084 58 23 298 88 328 89 11 1 18 -11 23 -36z"/>
<path d="M76 2636 c-81 -49 -75 43 -76 -1170 l0 -1078 22 -39 c14 -25 37 -46
63 -59 39 -19 62 -20 495 -20 433 0 456 1 495 20 26 13 49 34 63 59 20 35 22
53 22 205 l0 166 95 0 95 0 581 -336 c319 -184 606 -344 637 -355 84 -30 174
-35 252 -15 75 19 114 41 345 186 94 59 555 349 1025 645 470 295 867 548 882
563 34 32 52 83 45 129 -8 49 -79 154 -159 235 -119 121 -279 207 -451 244
-154 32 -366 14 -514 -45 -29 -11 -220 -109 -424 -216 -205 -108 -376 -197
-381 -198 -5 -1 -18 24 -28 55 -38 120 -114 213 -240 290 -99 60 -588 343
-667 385 -108 59 -148 63 -645 63 l-448 0 0 95 c0 117 -19 164 -80 195 -38 19
-58 20 -502 20 l-463 0 -39 -24z m784 -1171 l0 -895 -280 0 -280 0 0 895 0
895 280 0 280 0 0 -895z m1575 372 c198 -115 375 -222 392 -239 121 -117 18
-358 -154 -360 -60 0 -44 -8 -417 206 -278 159 -303 171 -348 170 -82 -1 -142
-61 -142 -142 0 -90 9 -97 366 -304 179 -102 352 -196 387 -208 71 -24 202
-29 273 -10 84 23 176 80 241 150 57 62 79 75 287 185 124 65 342 180 485 255
329 174 350 182 490 188 169 7 301 -36 410 -132 l48 -42 -24 -15 c-258 -169
-1952 -1225 -1976 -1232 -23 -7 -44 -7 -73 2 -22 6 -309 168 -637 359 l-598
347 -142 3 -143 3 0 515 0 515 458 -3 457 -3 360 -208z"/>
</g>
</svg>
