<?xml version="1.0" standalone="no"?>
<!DOCTYPE svg PUBLIC "-//W3C//DTD SVG 20010904//EN"
 "http://www.w3.org/TR/2001/REC-SVG-20010904/DTD/svg10.dtd">
<svg version="1.0" xmlns="http://www.w3.org/2000/svg"
 width="512.000000pt" height="512.000000pt" viewBox="0 0 512.000000 512.000000"
 preserveAspectRatio="xMidYMid meet">

<g transform="translate(0.000000,512.000000) scale(0.100000,-0.100000)"
fill="#000000" stroke="none">
<path d="M1180 4823 c-14 -2 -67 -13 -119 -24 -799 -178 -1259 -1089 -976
-1936 151 -453 510 -884 1329 -1593 206 -178 1077 -925 1118 -958 27 -23 29
-23 51 -5 71 57 1171 1004 1322 1137 240 213 617 592 737 741 193 240 321 461
393 678 213 638 7 1346 -500 1720 -117 86 -296 171 -440 208 -105 27 -142 32
-290 36 -192 6 -284 -6 -439 -58 -292 -97 -553 -321 -744 -637 -28 -46 -53
-89 -56 -95 -5 -9 -7 -9 -12 0 -3 6 -28 49 -55 95 -150 247 -360 454 -574 565
-186 96 -351 134 -572 132 -81 -1 -159 -3 -173 -6z m367 -307 c314 -66 575
-292 757 -654 73 -145 98 -218 177 -504 40 -148 75 -268 78 -268 3 0 37 114
75 253 77 280 111 377 181 517 187 373 460 603 781 660 102 18 326 8 429 -19
100 -26 261 -104 341 -164 77 -59 198 -186 247 -260 197 -297 256 -681 161
-1036 -104 -388 -410 -785 -1024 -1332 -216 -192 -1181 -1019 -1190 -1019 -4
0 -92 73 -196 163 -104 89 -329 281 -499 427 -733 626 -1038 925 -1260 1236
-217 303 -317 607 -302 914 16 322 121 579 322 789 151 158 325 254 531 295
94 19 306 20 391 2z"/>
</g>
</svg>
