<?xml version="1.0" standalone="no"?>
<!DOCTYPE svg PUBLIC "-//W3C//DTD SVG 20010904//EN"
 "http://www.w3.org/TR/2001/REC-SVG-20010904/DTD/svg10.dtd">
<svg version="1.0" xmlns="http://www.w3.org/2000/svg"
 width="512.000000pt" height="512.000000pt" viewBox="0 0 512.000000 512.000000"
 preserveAspectRatio="xMidYMid meet">

<g transform="translate(0.000000,512.000000) scale(0.100000,-0.100000)"
fill="#000000" stroke="none">
<path d="M1530 4720 l0 -150 -465 0 -465 0 0 -655 0 -655 -300 0 -300 0 0
-450 0 -450 160 0 159 0 5 -32 c3 -18 69 -478 146 -1023 78 -545 143 -1005
146 -1022 l6 -33 1938 0 1938 0 6 33 c3 17 68 477 146 1022 77 545 142 1005
145 1023 l6 32 159 0 160 0 0 450 0 450 -300 0 -300 0 0 655 0 655 -465 0
-465 0 0 150 0 150 -1030 0 -1030 0 0 -150z m1760 -300 l0 -150 -730 0 -730 0
0 150 0 150 730 0 730 0 0 -150z m-1760 -300 l0 -150 1030 0 1030 0 0 150 0
150 315 0 315 0 0 -505 0 -505 -1660 0 -1660 0 0 505 0 505 315 0 315 0 0
-150z m3290 -1310 l0 -150 -2260 0 -2260 0 0 150 0 150 2260 0 2260 0 0 -150z
m-327 -472 c-2 -13 -58 -405 -124 -873 -66 -467 -122 -865 -125 -882 l-6 -33
-1678 0 -1678 0 -6 33 c-3 17 -59 415 -126 882 -66 468 -121 860 -123 873 l-4
22 1937 0 1937 0 -4 -22z"/>
</g>
</svg>
